<svg xmlns="http://www.w3.org/2000/svg" xmlns:xlink="http://www.w3.org/1999/xlink" width="186" zoomAndPan="magnify" viewBox="0 0 139.5 53.25" height="71" preserveAspectRatio="xMidYMid meet" version="1.0"><defs><clipPath id="3d73d1bf0b"><path d="M 53.539062 47.125 L 56.253906 47.125 L 56.253906 50.527344 L 53.539062 50.527344 Z M 53.539062 47.125 " clip-rule="nonzero"/></clipPath><clipPath id="11ceec8510"><path d="M 0.539062 0.125 L 3.253906 0.125 L 3.253906 3.527344 L 0.539062 3.527344 Z M 0.539062 0.125 " clip-rule="nonzero"/></clipPath><clipPath id="c7736f2a06"><rect x="0" width="4" y="0" height="4"/></clipPath><clipPath id="89639d486c"><path d="M 51.007812 0 L 82.40625 0 L 82.40625 52.511719 L 51.007812 52.511719 Z M 51.007812 0 " clip-rule="nonzero"/></clipPath><clipPath id="fb2fc3fc29"><path d="M 56.214844 52.789062 L 51.023438 50.0625 L 77.1875 -0.046875 L 82.375 2.679688 Z M 56.214844 52.789062 " clip-rule="nonzero"/></clipPath><clipPath id="3afac95e64"><path d="M 56.214844 52.789062 L 51.023438 50.0625 L 77.1875 -0.046875 L 82.375 2.679688 Z M 56.214844 52.789062 " clip-rule="nonzero"/></clipPath><clipPath id="003def2cbb"><path d="M 49.472656 46.84375 L 56.234375 46.84375 L 56.234375 52.511719 L 49.472656 52.511719 Z M 49.472656 46.84375 " clip-rule="nonzero"/></clipPath><clipPath id="1f80e52e86"><path d="M 52.855469 46.84375 L 49.480469 52.769531 L 56.234375 52.769531 Z M 52.855469 46.84375 " clip-rule="nonzero"/></clipPath><clipPath id="3f79670597"><path d="M 52.855469 46.84375 L 49.480469 52.769531 L 56.234375 52.769531 Z M 52.855469 46.84375 " clip-rule="nonzero"/></clipPath><clipPath id="5ad66d5153"><path d="M 77.175781 0 L 83.929688 0 L 83.929688 5.855469 L 77.175781 5.855469 Z M 77.175781 0 " clip-rule="nonzero"/></clipPath><clipPath id="0d656d62c3"><path d="M 80.550781 5.855469 L 83.929688 -0.0703125 L 77.175781 -0.0703125 Z M 80.550781 5.855469 " clip-rule="nonzero"/></clipPath><clipPath id="5b58334d64"><path d="M 80.550781 5.855469 L 83.929688 -0.0703125 L 77.175781 -0.0703125 Z M 80.550781 5.855469 " clip-rule="nonzero"/></clipPath><clipPath id="5262d922b3"><path d="M 66.226562 0 L 97.617188 0 L 97.617188 52.511719 L 66.226562 52.511719 Z M 66.226562 0 " clip-rule="nonzero"/></clipPath><clipPath id="6d5b064b8a"><path d="M 71.4375 52.789062 L 66.246094 50.0625 L 92.40625 -0.046875 L 97.597656 2.679688 Z M 71.4375 52.789062 " clip-rule="nonzero"/></clipPath><clipPath id="56fae9bfc4"><path d="M 71.4375 52.789062 L 66.246094 50.0625 L 92.40625 -0.046875 L 97.597656 2.679688 Z M 71.4375 52.789062 " clip-rule="nonzero"/></clipPath><clipPath id="c508f6b4ff"><path d="M 64.695312 46.84375 L 71.457031 46.84375 L 71.457031 52.511719 L 64.695312 52.511719 Z M 64.695312 46.84375 " clip-rule="nonzero"/></clipPath><clipPath id="d73fe84e24"><path d="M 68.078125 46.84375 L 64.703125 52.769531 L 71.457031 52.769531 Z M 68.078125 46.84375 " clip-rule="nonzero"/></clipPath><clipPath id="335a4e903c"><path d="M 68.078125 46.84375 L 64.703125 52.769531 L 71.457031 52.769531 Z M 68.078125 46.84375 " clip-rule="nonzero"/></clipPath><clipPath id="3fc3024bf2"><path d="M 92.398438 0 L 99.160156 0 L 99.160156 5.855469 L 92.398438 5.855469 Z M 92.398438 0 " clip-rule="nonzero"/></clipPath><clipPath id="05893f861a"><path d="M 95.773438 5.855469 L 99.152344 -0.0703125 L 92.398438 -0.0703125 Z M 95.773438 5.855469 " clip-rule="nonzero"/></clipPath><clipPath id="51ca3eb911"><path d="M 95.773438 5.855469 L 99.152344 -0.0703125 L 92.398438 -0.0703125 Z M 95.773438 5.855469 " clip-rule="nonzero"/></clipPath><clipPath id="c781f219f5"><path d="M 0.722656 6 L 31 6 L 31 43 L 0.722656 43 Z M 0.722656 6 " clip-rule="nonzero"/></clipPath><clipPath id="3bac18e07d"><path d="M 107 6 L 137.546875 6 L 137.546875 43 L 107 43 Z M 107 6 " clip-rule="nonzero"/></clipPath></defs><g clip-path="url(#3d73d1bf0b)"><g transform="matrix(1, 0, 0, 1, 53, 47)"><g clip-path="url(#c7736f2a06)"><g clip-path="url(#11ceec8510)"><path fill="#833d0f" d="M 0.539062 0.125 L 3.253906 0.125 L 3.253906 3.527344 L 0.539062 3.527344 Z M 0.539062 0.125 " fill-opacity="1" fill-rule="nonzero"/></g></g></g></g><g clip-path="url(#89639d486c)"><g clip-path="url(#fb2fc3fc29)"><g clip-path="url(#3afac95e64)"><path fill="#ff3c1a" d="M 56.214844 52.789062 L 51.023438 50.0625 L 77.183594 -0.0429688 L 82.371094 2.683594 Z M 56.214844 52.789062 " fill-opacity="1" fill-rule="nonzero"/></g></g></g><g clip-path="url(#003def2cbb)"><g clip-path="url(#1f80e52e86)"><g clip-path="url(#3f79670597)"><path fill="#ff3c1a" d="M 49.472656 46.84375 L 56.234375 46.84375 L 56.234375 52.769531 L 49.472656 52.769531 Z M 49.472656 46.84375 " fill-opacity="1" fill-rule="nonzero"/></g></g></g><g clip-path="url(#5ad66d5153)"><g clip-path="url(#0d656d62c3)"><g clip-path="url(#5b58334d64)"><path fill="#ff3c1a" d="M 77.175781 -0.0703125 L 83.9375 -0.0703125 L 83.9375 5.855469 L 77.175781 5.855469 Z M 77.175781 -0.0703125 " fill-opacity="1" fill-rule="nonzero"/></g></g></g><g clip-path="url(#5262d922b3)"><g clip-path="url(#6d5b064b8a)"><g clip-path="url(#56fae9bfc4)"><path fill="#ff3c1a" d="M 71.4375 52.789062 L 66.246094 50.0625 L 92.40625 -0.0429688 L 97.59375 2.683594 Z M 71.4375 52.789062 " fill-opacity="1" fill-rule="nonzero"/></g></g></g><g clip-path="url(#c508f6b4ff)"><g clip-path="url(#d73fe84e24)"><g clip-path="url(#335a4e903c)"><path fill="#ff3c1a" d="M 64.695312 46.84375 L 71.457031 46.84375 L 71.457031 52.769531 L 64.695312 52.769531 Z M 64.695312 46.84375 " fill-opacity="1" fill-rule="nonzero"/></g></g></g><g clip-path="url(#3fc3024bf2)"><g clip-path="url(#05893f861a)"><g clip-path="url(#51ca3eb911)"><path fill="#ff3c1a" d="M 92.398438 -0.0703125 L 99.160156 -0.0703125 L 99.160156 5.855469 L 92.398438 5.855469 Z M 92.398438 -0.0703125 " fill-opacity="1" fill-rule="nonzero"/></g></g></g><g clip-path="url(#c781f219f5)"><path fill="#ff3c1a" d="M 30.6875 6.234375 L 30.6875 14.011719 L 10.976562 34.894531 L 30.6875 34.894531 L 30.6875 42.726562 L 0.285156 42.671875 L 0.285156 34.894531 L 20 14.011719 L 0.285156 14.011719 L 0.285156 6.234375 Z M 30.6875 6.234375 " fill-opacity="1" fill-rule="nonzero"/></g><path fill="#000000" d="M 61.644531 42.671875 L 59.042969 37.617188 L 45.472656 37.617188 L 42.871094 42.671875 L 32.90625 42.671875 L 52.285156 6.566406 L 71.613281 42.671875 Z M 55.554688 30.84375 L 52.285156 24.507812 L 48.964844 30.84375 Z M 55.554688 30.84375 " fill-opacity="1" fill-rule="nonzero"/><path fill="#000000" d="M 91.105469 6.566406 C 95.203125 6.566406 98.453125 7.921875 100.851562 10.625 C 102.917969 12.992188 103.953125 15.753906 103.953125 18.898438 C 103.953125 21.972656 102.992188 24.65625 101.074219 26.953125 C 98.675781 29.769531 95.316406 31.175781 90.996094 31.175781 L 82.46875 31.175781 L 82.46875 42.671875 L 73.828125 42.671875 L 73.828125 6.566406 Z M 95.148438 21.957031 C 95.515625 21.511719 95.792969 20.992188 95.980469 20.398438 C 96.125 19.882812 96.199219 19.382812 96.199219 18.898438 C 96.199219 18.417969 96.105469 17.898438 95.921875 17.34375 C 95.703125 16.75 95.40625 16.234375 95.039062 15.789062 C 94.1875 14.824219 92.875 14.34375 91.105469 14.34375 L 82.46875 14.34375 L 82.46875 23.398438 L 90.996094 23.398438 C 92.140625 23.398438 93.097656 23.230469 93.875 22.898438 C 94.390625 22.601562 94.816406 22.289062 95.148438 21.957031 Z M 95.148438 21.957031 " fill-opacity="1" fill-rule="nonzero"/><g clip-path="url(#3bac18e07d)"><path fill="#000000" d="M 124.554688 6.566406 C 128.652344 6.566406 131.898438 7.921875 134.296875 10.625 C 136.367188 12.992188 137.398438 15.753906 137.398438 18.898438 C 137.398438 21.972656 136.441406 24.65625 134.519531 26.953125 C 132.121094 29.769531 128.761719 31.175781 124.441406 31.175781 L 115.914062 31.175781 L 115.914062 42.671875 L 107.273438 42.671875 L 107.273438 6.566406 Z M 128.59375 21.957031 C 128.964844 21.511719 129.242188 20.992188 129.425781 20.398438 C 129.574219 19.882812 129.648438 19.382812 129.648438 18.898438 C 129.648438 18.417969 129.554688 17.898438 129.371094 17.34375 C 129.148438 16.75 128.855469 16.234375 128.484375 15.789062 C 127.632812 14.824219 126.324219 14.34375 124.554688 14.34375 L 115.914062 14.34375 L 115.914062 23.398438 L 124.441406 23.398438 C 125.585938 23.398438 126.546875 23.230469 127.320312 22.898438 C 127.839844 22.601562 128.261719 22.289062 128.59375 21.957031 Z M 128.59375 21.957031 " fill-opacity="1" fill-rule="nonzero"/></g></svg>